<?xml version="1.0" encoding="UTF-8"?><svg id="Layer_1" xmlns="http://www.w3.org/2000/svg" viewBox="0 0 104 104"><defs><style>.cls-1{fill:none;}.cls-1,.cls-2{stroke:#000;stroke-linecap:round;stroke-linejoin:round;stroke-width:2px;}</style></defs><line class="cls-1" x1="19.207" y1="85.625" x2="86.362" y2="85.625"/><g><path class="cls-1" d="M58.134,31.302v54.318h-11.12V31.302c0-3.076,2.494-5.56,5.56-5.56,1.538,0,2.918,.621,3.933,1.627,1.006,1.006,1.627,2.395,1.627,3.933Z"/><path class="cls-1" d="M79.329,53.394v11.544c0,6.565-5.323,11.889-11.889,11.889h-9.306"/><path class="cls-1" d="M58.134,65.707h7.117c1.636,0,2.957-1.321,2.957-3.933v-8.931c0-1.696,.729-3.283,1.903-4.357"/><path class="cls-1" d="M47.014,76.827h-9.217c-6.565,0-11.889-5.323-11.889-11.889v-8.212c0-2.948,2.208-5.55,5.156-5.757,1.696-.118,3.233,.522,4.328,1.617,1.006,1.006,1.627,2.395,1.627,3.933v6.23c0,1.636,1.321,2.957,2.957,2.957h7.039"/></g><g><g><g><line class="cls-1" x1="41.497" y1="37.439" x2="47.058" y2="37.439"/><line class="cls-1" x1="41.497" y1="30.336" x2="47.058" y2="30.336"/></g><g><line class="cls-1" x1="58.178" y1="37.439" x2="63.74" y2="37.439"/><line class="cls-1" x1="58.178" y1="44.267" x2="63.74" y2="44.267"/><line class="cls-1" x1="58.178" y1="30.336" x2="63.74" y2="30.336"/></g><g><line class="cls-1" x1="41.497" y1="51.105" x2="47.058" y2="51.105"/><line class="cls-1" x1="41.497" y1="57.933" x2="47.058" y2="57.933"/><line class="cls-1" x1="41.497" y1="44.003" x2="47.058" y2="44.003"/></g><g><line class="cls-1" x1="58.178" y1="51.105" x2="63.74" y2="51.105"/><line class="cls-1" x1="58.178" y1="57.933" x2="63.74" y2="57.933"/></g></g><line class="cls-1" x1="52.618" y1="19.889" x2="52.618" y2="25.743"/><line class="cls-1" x1="60.652" y1="23.131" x2="56.513" y2="27.27"/><line class="cls-1" x1="44.638" y1="23.131" x2="48.777" y2="27.27"/></g><line class="cls-1" x1="24.814" y1="80.471" x2="26.628" y2="85.625"/><line class="cls-1" x1="30.352" y1="79.134" x2="28.347" y2="85.62"/><circle class="cls-1" cx="80.011" cy="41.006" r="12.413"/><path class="cls-1" d="M76.241,46.552c1.799,1.677,4.481,2.226,6.874,1.18s3.812-3.388,3.802-5.848"/><g><path class="cls-1" d="M16.72,54.329c-3.611,0-6.539-2.928-6.539-6.539s2.928-6.539,6.539-6.539,6.539,2.928,6.539,6.539"/><path class="cls-1" d="M16.002,41.276c-.443-2.472,.295-5.111,2.196-7.011,3.092-3.092,8.114-3.092,11.206,0,1.733,1.733,2.491,4.077,2.285,6.342"/><line class="cls-1" x1="36.407" y1="40.606" x2="31.689" y2="40.606"/></g><polyline class="cls-1" points="79.329 76.827 79.329 85.625 83.83 81.226"/><line class="cls-1" x1="74.07" y1="79.857" x2="79.329" y2="85.625"/><circle class="cls-2" cx="75.992" cy="39.546" r="1.807"/><circle class="cls-2" cx="83.303" cy="37.147" r="1.807"/><circle class="cls-2" cx="76.241" cy="28.931" r="4.027"/></svg>